<?xml version="1.0" standalone="no"?>
<!DOCTYPE svg PUBLIC "-//W3C//DTD SVG 20010904//EN"
 "http://www.w3.org/TR/2001/REC-SVG-20010904/DTD/svg10.dtd">
<svg version="1.0" xmlns="http://www.w3.org/2000/svg"
 width="360.000000pt" height="360.000000pt" viewBox="0 0 360.000000 360.000000"
 preserveAspectRatio="xMidYMid meet">

<g transform="translate(0.000000,360.000000) scale(0.100000,-0.100000)"
fill="#000000" stroke="none">
<path d="M1585 3591 c-11 -5 -31 -21 -45 -36 -25 -26 -25 -27 -30 -270 l-5
-243 -31 -39 c-39 -48 -196 -122 -262 -122 -73 -1 -107 22 -269 181 -85 84
-164 157 -176 161 -55 20 -86 1 -234 -146 -147 -145 -171 -182 -158 -235 4
-16 68 -89 160 -182 198 -200 210 -227 159 -358 -43 -109 -75 -161 -113 -185
-34 -21 -50 -22 -273 -27 l-238 -5 -32 -33 -33 -32 0 -220 0 -220 33 -32 32
-33 239 -5 239 -5 39 -31 c53 -43 121 -195 122 -275 1 -75 -24 -111 -193 -279
-88 -87 -137 -144 -141 -162 -13 -55 11 -90 158 -235 146 -144 176 -164 229
-148 13 4 91 74 173 156 154 152 194 179 260 179 42 0 223 -72 254 -101 54
-51 56 -58 61 -306 l5 -233 33 -32 32 -33 220 0 220 0 32 33 33 32 5 233 c6
283 7 286 127 343 l76 36 -89 89 -90 90 -89 -23 c-134 -33 -333 -31 -469 5
-457 121 -760 536 -733 1006 38 666 715 1095 1343 852 157 -61 343 -210 443
-355 50 -72 117 -221 142 -316 32 -119 33 -358 1 -470 l-20 -75 91 -92 90 -92
31 71 c21 49 43 81 69 102 l39 31 239 5 239 5 32 33 33 32 0 220 0 220 -33 32
-32 33 -238 5 c-238 5 -239 5 -279 32 -41 27 -48 39 -102 167 -35 81 -38 124
-16 178 9 21 79 101 169 192 166 168 179 191 153 252 -8 19 -77 95 -153 171
-148 145 -182 165 -235 138 -13 -7 -91 -79 -174 -160 -82 -81 -164 -155 -182
-164 -54 -27 -117 -20 -222 27 -70 31 -102 52 -125 80 l-31 39 -5 244 -5 244
-33 32 -32 33 -208 2 c-114 1 -216 -2 -227 -6z"/>
<path d="M1720 2489 c-25 -6 -51 -12 -59 -15 -9 -3 42 -62 146 -167 196 -198
218 -236 218 -367 0 -71 -4 -94 -27 -143 -35 -73 -116 -155 -193 -192 -51 -25
-72 -30 -140 -30 -70 0 -89 4 -150 33 -61 29 -89 52 -221 189 -101 104 -156
154 -166 150 -21 -8 -28 -52 -28 -176 0 -127 18 -211 66 -307 96 -194 301
-357 505 -400 92 -20 234 -13 336 16 147 41 104 68 516 -333 562 -548 536
-527 637 -527 65 0 108 18 163 69 85 79 107 183 58 278 -19 38 -225 245 -644
647 -138 134 -230 229 -234 245 -9 33 -6 50 18 131 50 163 33 345 -48 510 -38
79 -60 109 -132 181 -94 93 -187 154 -291 190 -74 25 -254 35 -330 18z m1455
-1899 c7 0 27 -14 44 -31 35 -35 42 -89 17 -138 -36 -68 -156 -68 -192 0 -21
41 -18 102 7 133 20 26 73 48 97 40 8 -2 20 -4 27 -4z"/>
</g>
</svg>
